<svg id="Layer_1" data-name="Layer 1" xmlns="http://www.w3.org/2000/svg" xmlns:xlink="http://www.w3.org/1999/xlink" viewBox="0 0 1298.06 805.21"><defs><style>.cls-1{font-size:135.34px;fill:#6367b1;font-family:AvenirNext-Regular, Avenir Next;letter-spacing:0.2em;}.cls-2{letter-spacing:0.17em;}.cls-3{letter-spacing:0.2em;}.cls-4{mask:url(#mask);}.cls-5{fill:url(#linear-gradient);}.cls-6{fill:#ff7bac;}.cls-7{filter:url(#luminosity-noclip);}</style><filter id="luminosity-noclip" x="27.22" y="-8875" width="1296.78" height="32766" filterUnits="userSpaceOnUse" color-interpolation-filters="sRGB"><feFlood flood-color="#fff" result="bg"/><feBlend in="SourceGraphic" in2="bg"/></filter><mask id="mask" x="0" y="-9158.99" width="1296.78" height="32766" maskUnits="userSpaceOnUse"><g class="cls-7"/></mask><linearGradient id="linear-gradient" x1="27.22" y1="683.94" x2="681.09" y2="683.94" gradientUnits="userSpaceOnUse"><stop offset="0" stop-color="#ff7bac"/><stop offset="0.09" stop-color="#ff7bac" stop-opacity="0.84"/><stop offset="0.23" stop-color="#ff7bac" stop-opacity="0.62"/><stop offset="0.36" stop-color="#ff7bac" stop-opacity="0.43"/><stop offset="0.5" stop-color="#ff7bac" stop-opacity="0.28"/><stop offset="0.63" stop-color="#ff7bac" stop-opacity="0.15"/><stop offset="0.76" stop-color="#ff7bac" stop-opacity="0.07"/><stop offset="0.89" stop-color="#ff7bac" stop-opacity="0.02"/><stop offset="1" stop-color="#ff7bac" stop-opacity="0"/></linearGradient></defs><title>Untitled-2</title><text class="cls-1" transform="translate(584.57 749.58)">PH<tspan class="cls-2" x="229.8" y="0">OT</tspan><tspan class="cls-3" x="467.99" y="0">OS</tspan></text><g class="cls-4"><path class="cls-5" d="M680.72,429.93c-3.06,26-22.61,0-51.32-8.68-57.43-17.36-162.52-28.4-268.22-26.82-4.28,104.13-17.72,392.84-15.27,526.15,2.44,124.64,39.1,162.5,0,163.29-115.47,3.94-95.93-483.55-86.15-683.13C146.12,413.36,51.42,445.7,43.48,508c-2.45,18.15-18.94,25.24-15.89,2.37,15.28-113.6,117.31-169.6,235.83-193.26,0-20.52,2.45-32.35,33-33.14,14.66,0,29.93,9.47,41.54,22.09,112.42-10.26,226.67,3.16,287.77,21.3C660.56,337.63,684.39,404.68,680.72,429.93Z" transform="translate(-27.22 -283.99)"/><path class="cls-6" d="M680.72,429.93c-3.06,26-22.61,0-51.32-8.68-57.43-17.36-162.52-28.4-268.22-26.82-4.28,104.13-17.72,392.84-15.27,526.15,2.44,124.64,39.1,162.5,0,163.29-115.47,3.94-95.93-483.55-86.15-683.13C146.12,413.36,51.42,445.7,43.48,508c-2.45,18.15-18.94,25.24-15.89,2.37,15.28-113.6,117.31-169.6,235.83-193.26,0-20.52,2.45-32.35,33-33.14,14.66,0,29.93,9.47,41.54,22.09,112.42-10.26,226.67,3.16,287.77,21.3C660.56,337.63,684.39,404.68,680.72,429.93Z" transform="translate(-27.22 -283.99)"/><path class="cls-6" d="M296.43,285c13.21,0,28.08,7.94,40.8,21.77l.33.36.5,0c25.83-2.36,52.84-3.56,80.3-3.56,76.19,0,155.54,9.51,207.08,24.82,15,4.41,30,20.85,41.31,45.11,9.49,20.43,14.83,43.59,13,56.36-1.09,9.21-4.13,10.39-6.66,10.39-4,0-10-3.43-16.89-7.41-7.32-4.21-16.42-9.45-26.5-12.5-26.64-8.05-63.77-14.83-107.37-19.61a1318.2,1318.2,0,0,0-141-7.4c-6.7,0-13.48.05-20.13.15h-.95l0,.95c-.52,12.69-1.17,28-1.92,45.69-5.42,127-15.5,363.43-13.35,480.52,1,53.34,8.42,91.22,13.31,116.29,4.28,22,6.86,35.22,1.94,41.32-2.45,3-7,4.51-14.28,4.66l-1.36,0c-11.16,0-21.45-4.87-30.59-14.47-33.74-35.44-53.67-135.6-59.23-297.71-4.41-128.32.92-265.1,6.06-369.92l.06-1.17-1.17.13C198,406.59,148.17,418.4,111.57,434.83,69.5,453.72,46.26,478.3,42.48,507.89c-1.37,10.24-7,15.9-10.34,15.9a2.75,2.75,0,0,1-2.14-1c-1-1.13-2.49-4.22-1.42-12.25,7.09-52.7,33.6-96.34,78.8-129.68,38.89-28.7,91.46-49.8,156.24-62.73l.8-.16v-.82c0-21.28,3.16-31.39,32-32.14m0-1c-30.55.79-33,12.62-33,33.14C144.9,340.79,42.87,396.79,27.59,510.39c-1.35,10.15,1.14,14.4,4.55,14.4,4.27,0,10-6.68,11.34-16.77,7.94-62.32,102.64-94.66,216.28-107.28-9.74,198.78-29.19,683.15,84.76,683.15l1.39,0c39.1-.79,2.44-38.65,0-163.29-2.45-133.31,11-422,15.27-526.15q10.08-.15,20.12-.15c98.73,0,194.32,10.72,248.1,27,19.61,5.93,34.94,19.95,43.67,19.95,4,0,6.68-3,7.65-11.27,3.67-25.25-20.16-92.3-55-102.55-46.46-13.8-123.64-24.86-207.38-24.86-26.39,0-53.45,1.1-80.39,3.56C326.35,293.46,311.08,284,296.42,284Z" transform="translate(-27.22 -283.99)"/><path class="cls-6" d="M796.79,658.69c-3,14.08-62.93,224.7-114.86,243.07-1.83,1.22-5.49,1.83-9.77,1.83-57.44,0-71.49-119.38-75.76-119.38-4.89,0-28.11,93.06-76.37,93.06s-87.38-32.45-87.38-117.56c0-80.2,44-211.22,134.42-211.22,62.93,0,107.53,0,107.53,89.39,0,8.57-22,15.91-22,2.44,0-14.08-4.28-63.67-26.88-63.67-59.88,0-113,109-113,221.63,0,22.66,2.45,59.39,20.78,59.39s56.82-128,56.82-159.79c0-12.25,0-34.29,36.66-34.29,37.26,0,52.54,17.14,52.54,30v9.8c1.83,41.63-1.84,159.18,18.32,159.18,12.84,0,80-193.47,84.32-206.94C785.8,642.77,799.85,643.39,796.79,658.69Z" transform="translate(-27.22 -283.99)"/><path class="cls-6" d="M567.07,549.49c31.16,0,58.07,0,76.86,11,9.84,5.78,17,14.31,21.79,26.06,5.3,12.9,7.88,29.68,7.88,51.3,0,3.87-6.45,8.87-13.31,8.87-3,0-6.68-1.11-6.68-6.43a157.65,157.65,0,0,0-5-37.38c-5-18.11-12.68-27.29-22.88-27.29-14.79,0-29.45,6.41-43.59,19-13.38,11.95-25.58,28.8-36.28,50.08-21.71,43.2-34.17,99.16-34.17,153.51,0,15.77,1.19,28.7,3.55,38.43,3.52,14.57,9.65,22,18.23,22,12.18,0,29.39-48,36.23-68.64,12.31-37.16,21.59-76.78,21.59-92.15,0-12.45,0-33.29,35.66-33.29,20.9,0,33.11,5.44,39.67,10,7.43,5.16,11.87,12.27,11.87,19v9.84c.37,8.45.51,19.89.68,33.14.32,25.5.72,57.24,3,82.36,2.83,30.46,7.78,44.64,15.6,44.64,1.52,0,5.08,0,18.91-31,7.31-16.42,16.53-39.31,27.4-68,18.89-49.93,36.77-101.65,39-108.61,1.63-5.73,5.38-8.34,8.17-8.34a4.25,4.25,0,0,1,3.38,1.61c1.57,1.91,2,5.22,1.17,9.31-1.55,7.13-17.27,63.2-39.06,119.78C737.24,829,708.35,891.35,681.6,900.82l-.12,0-.11.07c-1.55,1-5,1.66-9.21,1.66-44.34,0-62.58-73.24-70.36-104.52-3.19-12.81-3.82-14.86-5.4-14.86-1.77,0-3.17,3.19-7.76,14.26C578,823.05,556,876.27,520,876.27c-25.3,0-46.4-9.17-61-26.51-16.82-20-25.35-50.25-25.35-90,0-44.14,12.72-96,33.19-135.23,11.89-22.8,25.92-40.8,41.71-53.49,17.75-14.27,37.44-21.5,58.52-21.5m0-1c-90.42,0-134.42,131-134.42,211.22,0,85.11,39.11,117.56,87.38,117.56s71.48-93.06,76.37-93.06c4.27,0,18.32,119.38,75.76,119.38,4.28,0,7.94-.61,9.77-1.83,51.93-18.37,111.81-229,114.86-243.07,1.63-8.15-1.6-12.13-5.52-12.13-3.44,0-7.42,3.06-9.14,9.07-4.28,13.47-71.48,206.94-84.32,206.94-20.16,0-16.49-117.55-18.32-159.18v-9.8c0-12.86-15.28-30-52.54-30-36.66,0-36.66,22-36.66,34.29,0,31.83-38.5,159.79-56.82,159.79s-20.78-36.73-20.78-59.39c0-112.65,53.16-221.63,113-221.63,22.6,0,26.88,49.59,26.88,63.67,0,5.37,3.48,7.43,7.68,7.43,6.34,0,14.31-4.72,14.31-9.87,0-89.39-44.6-89.39-107.53-89.39Z" transform="translate(-27.22 -283.99)"/><path class="cls-6" d="M913.48,895c-35.43,0-62.31-22.65-28.1-22.65,75.76,0,65.37-276.13,44-276.13-41.55,0-83.09,182.45-92.87,228.37,17.11,41.64,35.44,53.88,17.72,53.88-92.87,0-113-115.71-113-231.43,0-79,21.39-224.08,21.39-229,0-4.29.61-14.09,12.82-14.09,11.61,0,65.38,18.37,65.38,40.41,0,21.43-24.44,129.19-24.44,265.11,0,35.51,4.28,63.67,10.39,85.72,10.38-63.07,42.15-197.15,66.59-221,19.55-20.2,66.6-8.57,74.54-3.06C1045.45,623.18,1048.51,895,913.48,895Z" transform="translate(-27.22 -283.99)"/><path class="cls-6" d="M775.4,405c5.16,0,21.16,4.22,36.6,11.84,10.38,5.12,27.78,15.5,27.78,27.57,0,6-2,19.31-4.79,37.71-7.35,48.63-19.65,130-19.65,227.4,0,32.08,3.51,61,10.42,86l1.21,4.38.74-4.48c11-66.6,42.51-197.23,66.33-220.49,8.89-9.19,23.4-11.12,34-11.12,18,0,35.13,5.33,39.26,8.19,22.73,15.24,40.45,50.95,48.62,98,8.09,46.53,5.66,96.42-6.65,136.89-8.06,26.47-19.82,47.44-34.95,62.32-16.8,16.5-37.26,24.87-60.84,24.87A80.49,80.49,0,0,1,883,888.11c-8.55-3.66-12.38-7.71-12.38-10.1,0-2.91,5.53-4.64,14.8-4.64,11,0,20.77-5.66,29.07-16.82C921.8,846.66,928,832.4,933,814.16c4.84-17.84,13-56.9,13-118,0-26.44-1.61-51.45-4.54-70.43-3.12-20.22-7.17-30.47-12-30.47-18.15,0-38.1,32.86-59.3,97.66-16.92,51.71-29.8,109.19-34.55,131.51l-.06.3.11.28a279,279,0,0,0,18.34,36.29c4.31,7.42,7.43,12.79,6.31,14.73-.57,1-2.53,1.48-6,1.48-21.88,0-40.79-6.61-56.19-19.65-14-11.86-25.52-29.36-34.22-52-14.55-37.92-21.62-89.85-21.62-158.75,0-63.17,13.92-170.45,19.17-210.84,1.54-11.86,2.22-17.14,2.22-18.14,0-8.81,3.87-13.09,11.82-13.09m0-1c-12.21,0-12.82,9.8-12.82,14.09,0,4.9-21.39,150-21.39,229,0,115.72,20.16,231.43,113,231.43,17.72,0-.61-12.24-17.72-53.88,9.78-45.92,51.32-228.37,92.87-228.37,21.38,0,31.77,276.13-44,276.13-34.21,0-7.33,22.65,28.1,22.65,135,0,132-271.84,54.38-323.88-4.57-3.17-22.06-8.36-39.82-8.36-13.13,0-26.41,2.84-34.72,11.42-24.44,23.88-56.21,158-66.59,221-6.11-22.05-10.39-50.21-10.39-85.72,0-135.92,24.44-243.68,24.44-265.11,0-22-53.77-40.41-65.38-40.41Z" transform="translate(-27.22 -283.99)"/><path class="cls-6" d="M1215.9,895c-35.44,0-62.32-22.65-28.1-22.65,75.76,0,65.37-276.13,44-276.13-41.55,0-83.09,182.45-92.86,228.37,17.1,41.64,35.43,53.88,17.71,53.88-92.87,0-113-115.71-113-231.43,0-79,21.38-224.08,21.38-229,0-4.29.62-14.09,12.84-14.09,11.61,0,65.37,18.37,65.37,40.41,0,21.43-24.43,129.19-24.43,265.11,0,35.51,4.27,63.67,10.38,85.72,10.38-63.07,42.16-197.15,66.59-221,19.56-20.2,66.6-8.57,74.54-3.06C1347.88,623.18,1350.93,895,1215.9,895Z" transform="translate(-27.22 -283.99)"/><path class="cls-6" d="M1077.83,405c5.15,0,21.15,4.22,36.59,11.84,10.38,5.12,27.78,15.5,27.78,27.57,0,6-2,19.31-4.79,37.71-7.35,48.63-19.64,130-19.64,227.4,0,32.12,3.5,61,10.41,86l1.22,4.38.73-4.48c11-66.59,42.51-197.22,66.33-220.49,8.89-9.19,23.4-11.12,34-11.12,18,0,35.13,5.33,39.26,8.19,22.73,15.24,40.45,50.95,48.62,98,8.09,46.53,5.66,96.42-6.65,136.89-8.06,26.47-19.82,47.44-35,62.32-16.8,16.5-37.26,24.87-60.84,24.87a80.49,80.49,0,0,1-30.52-5.91c-8.55-3.66-12.38-7.71-12.38-10.1,0-1.26,1-2.3,3.09-3.11,2.59-1,6.53-1.53,11.71-1.53,11,0,20.77-5.66,29.07-16.82,7.35-9.88,13.58-24.14,18.53-42.38,4.84-17.84,13-56.9,13-118,0-26.44-1.61-51.46-4.54-70.43-3.12-20.22-7.17-30.48-12-30.48-18.15,0-38.1,32.86-59.3,97.66-16.93,51.76-29.8,109.21-34.54,131.51l-.07.3.12.28a278.32,278.32,0,0,0,18.33,36.28c4.32,7.43,7.43,12.79,6.31,14.74-.57,1-2.53,1.48-6,1.48-21.88,0-40.79-6.61-56.19-19.65-14-11.86-25.52-29.36-34.21-52-14.55-37.92-21.63-89.85-21.63-158.75,0-63.17,13.92-170.45,19.16-210.84,1.54-11.86,2.22-17.14,2.22-18.14,0-8.81,3.87-13.09,11.84-13.09m0-1c-12.22,0-12.84,9.8-12.84,14.09,0,4.9-21.38,150-21.38,229,0,115.72,20.16,231.43,113,231.43,17.72,0-.61-12.24-17.71-53.88,9.77-45.92,51.31-228.37,92.86-228.37,21.38,0,31.77,276.13-44,276.13-34.22,0-7.34,22.65,28.1,22.65,135,0,132-271.84,54.38-323.88-4.57-3.17-22.06-8.36-39.83-8.36-13.12,0-26.4,2.84-34.71,11.42-24.43,23.88-56.21,158-66.59,221-6.11-22.05-10.38-50.21-10.38-85.72,0-135.92,24.43-243.68,24.43-265.11,0-22-53.76-40.41-65.37-40.41Z" transform="translate(-27.22 -283.99)"/></g></svg>